<svg xmlns="http://www.w3.org/2000/svg" width="420" height="490" viewBox="0 0 420 490">
<g>
<path d="M 0.00 0.00 L 420.00 0.00 L 420.00 490.00 L 0.00 490.00 ZM 217.50 392.66 C225.20,394.77 230.82,395.77 233.19,395.47 C241.95,394.34 268.53,383.11 283.50,374.22 C311.07,357.84 334.14,331.13 344.49,303.63 C354.64,276.63 356.87,258.36 356.27,207.00 C355.88,173.81 350.42,118.82 346.77,111.28 C346.18,110.06 343.93,107.84 341.77,106.34 C335.83,102.22 329.36,102.69 308.00,108.78 C275.69,117.99 231.54,130.83 227.00,132.34 C224.52,133.16 216.88,135.48 210.00,137.50 C196.48,141.46 153.15,155.59 127.71,164.33 C119.03,167.32 110.99,170.60 109.86,171.63 C106.12,175.01 105.15,178.47 103.39,194.58 C100.04,225.20 101.47,278.00 105.64,278.00 C108.84,278.00 125.92,273.70 139.69,269.42 C189.29,254.03 224.14,233.20 259.25,197.95 C267.36,189.81 274.00,182.58 274.00,181.90 C274.00,181.22 274.67,179.91 275.50,179.00 C276.87,177.48 276.32,177.18 268.86,175.42 C257.16,172.66 256.42,171.84 262.73,168.64 C265.55,167.21 271.83,163.64 276.68,160.71 C281.53,157.79 286.40,154.86 287.50,154.21 C290.09,152.67 320.89,138.00 321.52,138.00 C322.40,138.00 321.99,152.30 320.53,172.00 C318.78,195.65 317.95,203.00 317.01,203.00 C315.97,203.00 308.73,197.61 307.07,195.60 C306.29,194.65 304.43,193.24 302.95,192.48 C300.28,191.09 300.20,191.16 293.73,199.29 C277.30,219.95 248.02,244.45 220.31,260.72 C200.61,272.30 198.02,273.64 182.48,280.31 C161.02,289.53 137.66,296.99 117.75,300.99 C114.59,301.62 112.00,302.35 112.00,302.60 C112.00,302.85 113.18,305.86 114.62,309.28 C127.23,339.25 153.41,365.99 184.19,380.36 C198.60,387.09 202.81,388.64 217.50,392.66 ZM 255.98 400.67 C256.59,401.29 271.96,400.19 276.93,399.16 C281.31,398.25 281.95,396.32 278.33,394.91 C275.35,393.75 255.98,393.52 247.52,394.53 C242.27,395.16 240.17,396.00 243.83,396.00 C245.02,396.00 246.00,396.40 246.00,396.88 C246.00,397.80 248.70,398.88 252.98,399.67 C254.35,399.92 255.70,400.37 255.98,400.67 ZM 185.25 398.87 C187.04,399.39 192.19,399.74 196.70,399.65 C205.68,399.49 208.31,398.28 205.93,395.42 C204.76,394.01 203.10,393.83 195.03,394.26 C185.39,394.77 182.00,395.50 182.00,397.08 C182.00,397.55 183.46,398.36 185.25,398.87 Z" fill="rgb(1,1,1)"/>
<path d="M 268.94 310.50 C268.83,309.39 268.45,310.07 268.09,312.00 C266.83,318.73 266.00,303.91 266.00,274.93 L 266.00 247.15 L 274.75 240.13 C279.56,236.26 288.11,228.99 293.75,223.97 L 304.00 214.84 L 304.00 303.11 L 301.92 301.66 C299.55,300.00 295.59,300.72 288.01,304.18 C284.22,305.92 277.75,307.93 271.92,309.19 C271.14,309.36 270.19,310.17 269.82,311.00 C269.29,312.17 269.10,312.06 268.94,310.50 ZM 177.00 339.01 C173.51,340.21 161.00,340.78 161.00,339.74 C161.00,339.27 160.59,339.14 160.09,339.45 C158.83,340.22 157.80,327.51 158.18,316.07 L 158.50 306.63 L 172.00 301.52 C179.43,298.71 187.69,295.41 190.38,294.20 C193.06,292.99 195.42,292.00 195.63,292.00 C195.83,292.00 196.00,301.93 196.00,314.07 C196.00,335.49 195.94,336.12 194.05,335.52 C192.98,335.18 190.69,335.63 188.97,336.52 C187.24,337.41 184.41,338.14 182.67,338.15 C180.92,338.15 178.38,338.54 177.00,339.01 ZM 222.03 308.41 C219.57,308.79 217.32,309.48 217.02,309.96 C216.73,310.44 215.73,310.28 214.80,309.60 C213.45,308.61 212.98,305.88 212.42,295.77 L 211.72 283.17 L 217.98 280.01 C221.43,278.27 229.33,273.73 235.55,269.92 C241.78,266.12 247.35,263.00 247.93,263.00 C248.65,263.00 249.00,268.98 249.00,281.25 L 248.99 299.50 L 244.74 301.25 C242.39,302.21 239.91,303.00 239.21,303.00 C238.51,303.00 235.37,304.07 232.22,305.37 C229.07,306.67 224.49,308.04 222.03,308.41 ZM 255.98 400.67 C255.70,400.37 254.35,399.92 252.98,399.67 C248.70,398.88 246.00,397.80 246.00,396.88 C246.00,396.40 245.02,396.00 243.83,396.00 C240.17,396.00 242.27,395.16 247.52,394.53 C255.98,393.52 275.35,393.75 278.33,394.91 C281.95,396.32 281.31,398.25 276.93,399.16 C271.96,400.19 256.59,401.29 255.98,400.67 ZM 185.25 398.87 C183.46,398.36 182.00,397.55 182.00,397.08 C182.00,395.50 185.39,394.77 195.03,394.26 C203.10,393.83 204.76,394.01 205.93,395.42 C208.31,398.28 205.68,399.49 196.70,399.65 C192.19,399.74 187.04,399.39 185.25,398.87 Z" fill="rgb(76,54,20)"/>
<path d="M 268.94 310.50 C269.10,312.06 269.29,312.17 269.82,311.00 C270.19,310.17 271.14,309.36 271.92,309.19 C277.75,307.93 284.22,305.92 288.01,304.18 C295.59,300.72 299.55,300.00 301.92,301.66 L 303.99 303.10 C303.98,304.28 303.98,305.43 303.98,306.56 C303.92,344.44 303.91,356.35 306.63,357.01 C306.68,357.02 306.72,357.03 306.77,357.04 C299.56,363.51 291.73,369.33 283.50,374.22 C281.16,375.61 278.54,377.05 275.75,378.51 C282.92,374.68 287.86,371.45 288.90,369.79 C290.03,367.99 289.99,367.79 288.60,368.32 C287.72,368.66 287.00,368.55 287.00,368.09 C287.00,367.62 285.09,367.20 282.75,367.15 C277.84,367.06 268.02,371.62 267.99,374.00 C267.97,375.33 267.86,375.33 267.00,374.00 C266.40,373.07 266.02,348.56 266.02,309.83 L 266.01 279.72 C266.10,305.52 266.90,318.35 268.09,312.00 C268.45,310.07 268.83,309.39 268.94,310.50 ZM 217.50 392.66 C202.81,388.64 198.60,387.09 184.19,380.36 C171.73,374.55 160.03,366.71 149.68,357.45 C150.18,357.86 150.69,358.26 151.19,358.65 C157.32,363.36 157.67,363.12 155.54,355.65 C154.95,353.56 154.51,353.16 153.87,354.15 C153.20,355.19 152.86,355.00 152.42,353.37 C152.09,352.20 150.80,350.78 149.55,350.20 C145.72,348.46 145.72,341.00 149.55,341.00 C150.35,341.00 151.00,340.48 151.00,339.83 C151.00,339.19 151.28,338.95 151.62,339.29 C152.39,340.06 155.00,337.54 155.00,336.01 C155.00,335.39 155.45,335.16 156.00,335.50 C156.55,335.84 157.06,335.98 157.13,335.81 C157.19,335.64 157.53,329.00 157.88,321.07 L 158.50 306.63 L 158.50 306.63 L 172.00 301.52 C175.71,300.11 179.64,298.59 182.97,297.26 C179.64,298.59 175.71,300.11 172.00,301.52 L 158.50 306.63 L 158.18 316.07 C157.80,327.51 158.83,340.22 160.09,339.45 C160.59,339.14 161.00,339.27 161.00,339.74 C161.00,340.78 173.51,340.21 177.00,339.01 C178.38,338.54 180.92,338.15 182.67,338.15 C184.41,338.14 187.24,337.41 188.97,336.52 C190.69,335.63 192.98,335.18 194.05,335.52 C195.94,336.12 196.00,335.49 196.00,314.07 C196.00,312.27 196.00,310.52 195.99,308.85 C196.09,316.96 196.18,327.40 196.24,338.74 L 196.50 385.48 L 200.22 387.24 C202.27,388.20 209.70,390.54 216.72,392.42 C219.01,393.04 221.25,393.62 223.27,394.13 C221.51,393.72 219.58,393.23 217.50,392.66 ZM 222.03 308.41 C224.49,308.04 229.07,306.67 232.22,305.37 C235.37,304.07 238.51,303.00 239.21,303.00 C239.91,303.00 242.39,302.21 244.74,301.25 L 248.99 299.50 L 248.99 291.00 C249.15,307.54 248.99,325.82 248.39,328.79 C247.89,331.31 246.83,332.25 242.14,334.32 C234.61,337.65 227.47,340.00 222.00,340.96 C219.52,341.39 216.72,342.07 215.76,342.47 C212.57,343.82 212.00,338.95 212.00,310.45 L 212.00 288.26 L 212.42 295.77 C212.98,305.88 213.45,308.61 214.80,309.60 C215.73,310.28 216.73,310.44 217.02,309.96 C217.32,309.48 219.57,308.79 222.03,308.41 ZM 352.48 146.88 C350.54,130.11 348.03,113.89 346.77,111.28 C348.51,114.87 350.66,129.23 352.48,146.88 ZM 329.83 331.04 C336.44,321.39 341.77,311.05 345.87,299.88 C345.42,301.12 344.97,302.36 344.49,303.63 C340.97,312.98 335.98,322.25 329.83,331.04 ZM 348.08 293.37 C351.10,283.82 353.26,273.69 354.59,262.92 C353.31,274.20 351.24,283.54 348.08,293.37 ZM 236.26 394.86 C240.86,393.51 247.79,391.05 254.24,388.50 C247.20,391.42 240.70,393.75 236.26,394.86 ZM 129.99 335.95 C123.74,327.55 118.53,318.57 114.62,309.28 C118.33,318.10 123.80,327.45 129.99,335.95 ZM 356.35 216.21 C356.29,208.33 356.13,200.46 355.87,192.90 C356.08,197.88 356.22,202.63 356.27,207.00 C356.31,210.19 356.34,213.26 356.35,216.21 ZM 195.62 292.00 C195.36,292.02 193.03,293.01 190.38,294.20 C193.06,292.99 195.42,292.00 195.62,292.00 Z" fill="rgb(137,101,41)"/>
<path d="M 274.00 181.67 C274.00,181.11 274.67,179.91 275.50,179.00 C274.67,179.91 274.00,181.22 274.00,181.90 C274.00,182.58 267.36,189.81 259.25,197.95 C224.14,233.20 189.29,254.03 139.69,269.42 C136.55,270.40 133.23,271.38 129.95,272.30 C139.89,269.40 149.07,266.27 149.46,265.25 C149.92,264.05 149.40,263.90 146.76,264.46 C135.23,266.91 126.79,265.93 123.69,261.79 L 121.71 259.13 L 123.96 253.11 C125.91,247.90 127.36,246.08 134.85,239.52 C143.63,231.82 156.72,224.39 169.00,220.14 C178.45,216.86 190.18,212.98 198.50,210.37 C202.90,208.99 210.32,206.35 215.00,204.50 C228.03,199.34 256.16,189.72 259.30,189.35 C261.31,189.12 261.90,189.38 261.38,190.26 C260.98,190.94 261.56,190.71 262.66,189.75 C265.93,186.88 266.60,187.77 263.56,190.94 C261.04,193.57 260.97,193.82 262.86,193.33 C264.02,193.02 264.75,192.41 264.47,191.96 C264.20,191.51 266.23,189.24 268.99,186.92 C271.74,184.59 274.00,182.23 274.00,181.67 ZM 329.83 331.04 C323.31,340.38 315.50,349.20 306.77,357.04 C306.72,357.03 306.68,357.02 306.63,357.01 C303.91,356.35 303.92,344.44 303.98,306.56 C303.98,305.43 303.98,304.28 303.99,303.10 L 304.00 303.11 L 304.00 214.84 L 293.75 223.97 C290.73,226.66 286.88,229.99 283.21,233.10 C286.44,230.34 289.86,227.35 292.86,224.68 L 305.00 213.86 L 305.00 262.43 C305.00,308.03 305.11,311.00 306.75,310.98 C307.71,310.97 312.51,308.27 317.41,304.98 C322.31,301.69 326.76,299.00 327.29,299.00 C327.83,299.00 331.40,297.40 335.23,295.45 C339.77,293.14 343.27,292.00 345.27,292.20 C348.31,292.50 348.34,292.45 350.68,284.00 C350.82,283.49 350.96,282.97 351.10,282.46 C350.21,286.18 349.21,289.82 348.08,293.37 C347.40,295.51 346.66,297.67 345.87,299.88 C341.77,311.05 336.44,321.39 329.83,331.04 ZM 158.50 306.63 L 157.88 321.07 C157.53,329.00 157.19,335.64 157.13,335.81 C157.06,335.98 156.55,335.84 156.00,335.50 C155.45,335.16 155.00,335.39 155.00,336.01 C155.00,337.54 152.39,340.06 151.62,339.29 C151.28,338.95 151.00,339.19 151.00,339.83 C151.00,340.48 150.35,341.00 149.55,341.00 C145.72,341.00 145.72,348.46 149.55,350.20 C150.80,350.78 152.09,352.20 152.42,353.37 C152.86,355.00 153.20,355.19 153.87,354.15 C154.51,353.16 154.95,353.56 155.54,355.65 C157.67,363.12 157.32,363.36 151.19,358.65 C150.69,358.26 150.18,357.86 149.68,357.45 C142.38,350.92 135.74,343.68 129.99,335.95 C123.94,327.65 118.58,318.53 114.88,309.89 C117.91,316.38 122.81,325.42 124.17,326.65 C125.95,328.27 126.04,328.27 125.43,326.68 C124.47,324.18 126.74,322.01 133.52,318.93 C136.83,317.42 140.68,315.05 142.07,313.66 C143.46,312.27 146.83,310.27 149.55,309.22 C152.27,308.17 155.40,306.94 156.50,306.49 C157.60,306.03 159.41,305.54 160.53,305.40 C161.41,305.30 164.38,304.33 168.20,302.96 L 158.50 306.63 ZM 223.20 365.14 C220.06,365.71 217.03,366.57 216.47,367.04 C215.89,367.51 214.78,367.48 213.97,366.98 C212.81,366.26 212.50,360.59 212.25,331.34 C212.65,341.46 213.61,343.38 215.76,342.47 C216.72,342.07 219.52,341.39 222.00,340.96 C227.47,340.00 234.61,337.65 242.14,334.32 C246.83,332.25 247.89,331.31 248.39,328.79 C248.41,328.71 248.42,328.63 248.44,328.54 C248.03,355.23 247.71,355.81 245.93,357.25 C244.75,358.21 242.69,359.00 241.36,359.00 C240.02,359.00 236.67,360.14 233.91,361.54 C231.15,362.94 226.33,364.56 223.20,365.14 ZM 269.35 244.47 L 266.00 247.15 L 266.00 274.93 C266.00,276.57 266.00,278.17 266.01,279.72 L 266.01 279.72 L 266.02 309.83 C266.02,348.56 266.40,373.07 267.00,374.00 C267.86,375.33 267.97,375.33 267.99,374.00 C268.02,371.62 277.84,367.06 282.75,367.15 C285.09,367.20 287.00,367.62 287.00,368.09 C287.00,368.55 287.72,368.66 288.60,368.32 C289.99,367.79 290.03,367.99 288.90,369.79 C287.86,371.45 282.92,374.68 275.75,378.51 C272.68,380.11 269.39,381.72 266.05,383.29 L 266.01 315.27 L 265.97 247.12 ZM 236.26 394.86 C235.10,395.15 234.08,395.35 233.22,395.47 C235.17,395.20 241.60,393.15 248.11,390.84 C243.67,392.49 239.42,393.93 236.26,394.86 ZM 248.97 275.84 C248.88,267.51 248.56,263.29 247.99,263.01 C248.03,263.00 248.07,263.00 248.09,263.00 C248.64,263.00 248.92,266.27 248.97,275.84 ZM 112.46 303.94 C112.17,303.19 112.00,302.70 112.00,302.60 C112.00,302.46 112.86,302.15 114.20,301.80 C112.45,302.32 112.19,302.83 112.46,303.94 ZM 211.93 286.92 L 212.00 288.26 L 212.00 297.17 ZM 189.37 294.62 C191.34,293.74 193.15,292.96 194.31,292.49 C193.33,292.89 191.91,293.51 190.38,294.20 C189.87,294.43 189.15,294.74 188.28,295.10 C188.66,294.94 189.03,294.78 189.37,294.62 ZM 223.00 394.06 C227.92,395.19 231.43,395.69 233.17,395.47 C231.43,395.69 227.98,395.21 223.27,394.13 C223.18,394.10 223.09,394.08 223.00,394.06 ZM 105.67 278.00 C101.46,277.91 100.02,225.37 103.39,194.58 C100.04,225.20 101.47,278.00 105.64,278.00 C105.65,278.00 105.66,278.00 105.67,278.00 ZM 117.75 300.99 C118.15,300.91 118.55,300.83 118.96,300.74 C118.54,300.83 118.12,300.91 117.71,301.00 C117.72,300.99 117.74,300.99 117.75,300.99 Z" fill="rgb(189,151,74)"/>
<path d="M 195.62 292.00 L 195.62 292.00 C195.53,292.00 195.05,292.18 194.31,292.49 C193.15,292.96 191.34,293.74 189.37,294.62 C189.03,294.78 188.66,294.94 188.28,295.10 C186.86,295.70 185.03,296.44 182.97,297.26 C179.64,298.59 175.71,300.11 172.00,301.52 L 168.20 302.96 C164.38,304.33 161.41,305.30 160.53,305.40 C159.41,305.54 157.60,306.03 156.50,306.49 C155.40,306.94 152.27,308.17 149.55,309.22 C146.83,310.27 143.46,312.27 142.07,313.66 C140.68,315.05 136.83,317.42 133.52,318.93 C126.74,322.01 124.47,324.18 125.43,326.68 C126.04,328.27 125.95,328.27 124.17,326.65 C122.81,325.42 117.91,316.38 114.88,309.89 C114.79,309.69 114.70,309.48 114.62,309.28 C114.24,308.38 113.88,307.50 113.55,306.70 C113.64,306.92 113.74,307.14 113.84,307.37 C115.80,311.80 115.92,311.88 119.07,310.98 C120.85,310.47 123.15,309.14 124.19,308.03 C125.23,306.91 126.62,306.00 127.29,306.00 C127.96,306.00 129.40,304.64 130.50,302.99 C131.60,301.34 133.29,299.74 134.25,299.43 C137.19,298.48 136.28,296.71 133.25,297.48 C132.39,297.70 130.29,298.19 127.74,298.76 C145.23,294.51 164.52,288.03 182.48,280.31 C198.02,273.64 200.61,272.30 220.31,260.72 C237.90,250.39 256.13,236.74 271.29,222.87 C262.97,231.12 262.19,232.49 263.04,234.08 C263.66,235.23 263.90,236.43 263.58,236.75 C263.26,237.08 263.74,238.16 264.65,239.17 C265.91,240.56 265.98,241.00 264.95,241.00 C263.90,241.00 263.87,241.27 264.80,242.20 C266.33,243.73 266.37,245.34 264.85,244.40 C264.14,243.97 263.96,244.13 264.38,244.81 C265.29,246.28 267.68,245.52 273.19,241.38 L 269.35 244.47 L 265.97 247.12 L 266.00 291.60 C265.77,272.35 265.42,262.00 264.98,262.00 C264.44,262.00 263.93,263.46 263.84,265.25 L 263.68 268.50 L 263.28 265.25 C262.82,261.60 261.24,261.14 257.51,263.59 C255.90,264.64 254.08,264.96 252.11,264.52 L 249.13 263.87 L 249.00 285.19 L 249.00 281.25 C249.00,279.29 248.99,277.48 248.97,275.84 C248.92,266.27 248.64,263.00 248.09,263.00 C248.07,263.00 248.03,263.00 247.99,263.01 C247.97,263.00 247.95,263.00 247.93,263.00 C247.35,263.00 241.78,266.12 235.55,269.92 C229.33,273.73 221.43,278.27 217.98,280.01 L 211.72 283.17 L 211.93 286.92 L 212.00 297.17 L 212.00 310.45 C212.00,319.71 212.06,326.47 212.25,331.34 C212.50,360.59 212.81,366.26 213.97,366.98 C214.78,367.48 215.89,367.51 216.47,367.04 C217.03,366.57 220.06,365.71 223.20,365.14 C226.33,364.56 231.15,362.94 233.91,361.54 C236.67,360.14 240.02,359.00 241.36,359.00 C242.69,359.00 244.75,358.21 245.93,357.25 C247.71,355.81 248.03,355.23 248.44,328.54 C248.56,327.76 248.66,326.33 248.74,324.39 C248.49,356.58 248.10,367.24 247.19,369.00 C244.62,373.98 226.94,381.95 218.41,381.99 C212.24,382.01 212.01,380.94 211.93,351.70 C211.89,337.84 211.47,325.60 211.00,324.50 C210.53,323.40 210.11,322.99 210.07,323.59 C210.03,324.30 207.48,324.62 202.99,324.50 L 196.14 324.32 C196.10,318.61 196.04,313.37 195.99,308.85 L 195.99 308.85 C195.95,299.21 195.80,292.00 195.63,292.00 C195.62,292.00 195.62,292.00 195.62,292.00 ZM 274.00 181.67 C274.00,182.23 271.74,184.59 268.99,186.92 C266.23,189.24 264.20,191.51 264.47,191.96 C264.75,192.41 264.02,193.02 262.86,193.33 C260.97,193.82 261.04,193.57 263.56,190.94 C266.60,187.77 265.93,186.88 262.66,189.75 C261.56,190.71 260.98,190.94 261.38,190.26 C261.90,189.38 261.31,189.12 259.30,189.35 C256.16,189.72 228.03,199.34 215.00,204.50 C210.32,206.35 202.90,208.99 198.50,210.37 C190.18,212.98 178.45,216.86 169.00,220.14 C156.72,224.39 143.63,231.82 134.85,239.52 C127.36,246.08 125.91,247.90 123.96,253.11 L 121.71 259.13 L 123.69 261.79 C126.79,265.93 135.23,266.91 146.76,264.46 C149.40,263.90 149.92,264.05 149.46,265.25 C149.07,266.27 139.89,269.40 129.95,272.30 C118.89,275.43 108.20,277.98 105.67,278.00 L 101.58 242.59 C101.82,243.06 102.13,243.35 102.53,243.64 C105.29,245.66 106.70,245.31 108.57,242.15 C110.26,239.30 116.03,235.06 124.16,230.72 C126.55,229.45 131.88,226.42 136.00,223.99 C142.80,219.98 152.82,215.40 163.48,211.41 C165.67,210.59 168.54,209.22 169.86,208.36 C171.17,207.50 177.03,205.07 182.87,202.97 C197.65,197.66 210.21,192.49 216.86,188.97 C219.96,187.33 228.57,183.46 236.00,180.36 C247.70,175.49 250.40,174.73 256.28,174.66 C262.54,174.59 262.87,174.49 260.53,173.26 C259.14,172.53 258.00,171.73 258.00,171.48 C258.00,171.28 259.52,170.34 261.58,169.24 C256.56,171.95 257.93,172.84 268.86,175.42 C276.32,177.18 276.87,177.48 275.50,179.00 C274.67,179.91 274.00,181.11 274.00,181.67 ZM 304.27 145.99 C306.70,144.61 309.02,143.00 310.10,141.90 C311.58,140.38 313.01,139.34 313.27,139.60 C313.53,139.86 313.52,138.95 313.26,137.58 C312.87,135.52 313.26,134.97 315.54,134.40 C317.13,134.00 319.08,134.20 320.14,134.85 C322.71,136.46 323.10,136.37 328.29,132.93 C331.31,130.93 334.32,129.81 336.96,129.71 C339.87,129.59 341.17,129.05 341.57,127.77 C342.42,125.10 346.00,125.49 346.02,128.25 C346.03,129.92 346.25,130.15 346.91,129.12 C347.52,128.15 347.99,128.96 348.48,131.87 C348.86,134.14 349.59,136.00 350.09,136.00 C350.70,136.00 351.00,135.90 350.89,134.19 C350.78,132.56 350.31,129.50 349.41,123.70 C348.76,119.59 348.26,116.67 347.69,114.49 C347.11,112.27 346.45,110.80 345.51,109.59 C346.10,110.23 346.55,110.83 346.77,111.28 C347.13,112.02 347.50,113.20 347.88,114.78 C348.89,118.90 349.97,125.68 351.01,133.96 C351.51,137.96 352.01,142.31 352.48,146.88 C352.61,148.15 352.74,149.44 352.86,150.74 C352.55,149.12 352.21,148.13 351.87,147.92 C351.21,147.51 351.06,146.02 351.47,144.12 C351.93,142.03 351.78,141.00 351.00,141.00 C350.30,141.00 349.93,142.46 350.06,144.75 C350.17,146.81 350.01,149.18 349.69,150.00 C349.37,150.82 348.44,153.83 347.63,156.67 C345.21,165.16 344.50,165.99 334.10,172.50 C333.23,173.05 331.36,174.25 329.96,175.17 C328.56,176.09 325.86,176.99 323.96,177.17 L 320.50 177.50 L 319.15 190.00 C319.04,191.02 318.93,192.02 318.82,192.98 C319.29,188.17 319.84,181.36 320.53,172.00 C321.99,152.30 322.40,138.00 321.52,138.00 C321.19,138.00 312.70,141.97 304.27,145.99 ZM 305.00 252.43 C305.00,273.64 305.37,291.00 305.83,291.00 C306.28,291.00 309.77,288.59 313.58,285.63 C317.39,282.68 322.89,279.06 325.82,277.58 C328.75,276.10 333.34,273.32 336.02,271.39 C339.79,268.68 342.08,267.81 346.18,267.53 C349.45,267.30 351.75,267.60 352.19,268.30 C353.02,269.66 353.53,269.31 354.17,266.14 C353.38,271.75 352.35,277.19 351.10,282.46 L 351.10 282.46 C350.96,282.97 350.82,283.49 350.68,284.00 C348.34,292.45 348.31,292.50 345.27,292.20 C343.27,292.00 339.77,293.14 335.23,295.45 C331.40,297.40 327.83,299.00 327.29,299.00 C326.76,299.00 322.31,301.69 317.41,304.98 C312.51,308.27 307.71,310.97 306.75,310.98 C305.11,311.00 305.00,308.03 305.00,262.43 ZM 311.27 199.29 C305.77,195.51 303.48,194.14 302.60,194.07 C302.10,194.03 302.73,194.90 304.00,196.00 C305.27,197.10 305.80,198.00 305.18,198.00 C304.57,198.00 304.32,198.68 304.64,199.51 C305.27,201.15 299.77,204.00 295.97,204.00 C294.82,204.00 294.10,204.35 294.37,204.79 C294.63,205.22 294.00,205.57 292.97,205.57 C291.18,205.57 291.17,205.47 292.79,203.64 C293.73,202.58 293.96,201.89 293.30,202.10 C292.82,202.27 288.64,206.07 283.12,211.34 C287.05,207.24 290.62,203.20 293.73,199.29 C300.20,191.16 300.28,191.09 302.95,192.48 C304.43,193.24 306.29,194.65 307.07,195.60 C307.77,196.45 309.47,197.90 311.27,199.29 ZM 356.35 216.21 C356.38,222.68 356.35,228.59 356.25,234.03 C356.41,219.01 356.11,200.99 355.50,185.32 C355.64,187.89 355.76,190.42 355.87,192.90 L 355.87 192.91 C356.13,200.46 356.29,208.33 356.35,216.21 ZM 102.11 211.29 C102.41,205.34 102.83,199.65 103.39,194.58 C104.06,188.39 104.62,184.06 105.27,180.90 C104.15,187.34 102.94,198.98 102.11,211.29 ZM 107.93 173.75 C108.48,172.97 109.12,172.30 109.86,171.63 C110.26,171.27 111.51,170.62 113.35,169.82 C110.66,171.13 109.09,172.31 107.93,173.75 ZM 265.49 167.17 C268.68,165.41 273.30,162.73 277.18,160.37 C279.59,158.91 281.61,157.70 283.48,156.62 C281.52,157.80 279.10,159.25 276.68,160.71 C273.07,162.89 268.66,165.43 265.49,167.17 ZM 117.51 301.04 L 117.55 301.03 C117.61,301.02 117.66,301.01 117.71,301.00 C117.87,300.96 118.03,300.93 118.18,300.90 C116.18,301.37 114.48,301.78 113.41,302.08 C113.63,301.98 113.89,301.89 114.20,301.80 C115.12,301.56 116.27,301.29 117.51,301.04 ZM 317.75 201.29 C317.60,202.25 317.49,202.83 317.42,202.90 C317.39,202.93 317.31,202.93 317.20,202.90 C317.38,202.70 317.56,202.19 317.75,201.29 ZM 112.46 303.94 C112.43,303.84 112.41,303.75 112.40,303.66 C112.51,304.01 112.65,304.43 112.83,304.90 C112.69,304.55 112.56,304.23 112.46,303.94 ZM 291.54 225.86 C291.97,225.47 292.41,225.08 292.86,224.68 L 305.00 213.86 L 292.86 224.68 C292.43,225.06 291.99,225.46 291.54,225.86 Z" fill="rgb(213,181,99)"/>
<path d="M 305.00 252.43 L 305.00 213.86 L 292.86 224.68 C292.41,225.08 291.97,225.47 291.54,225.86 C288.88,228.21 285.97,230.74 283.21,233.10 C280.03,235.80 276.99,238.33 274.75,240.13 L 273.19 241.38 C267.68,245.52 265.29,246.28 264.38,244.81 C263.96,244.13 264.14,243.97 264.85,244.40 C266.37,245.34 266.33,243.73 264.80,242.20 C263.87,241.27 263.90,241.00 264.95,241.00 C265.98,241.00 265.91,240.56 264.65,239.17 C263.74,238.16 263.26,237.08 263.58,236.75 C263.90,236.43 263.66,235.23 263.04,234.08 C262.19,232.49 262.97,231.12 271.29,222.87 C275.50,219.02 279.46,215.16 283.12,211.34 C288.64,206.07 292.82,202.27 293.30,202.10 C293.96,201.89 293.73,202.58 292.79,203.64 C291.17,205.47 291.18,205.57 292.97,205.57 C294.00,205.57 294.63,205.22 294.37,204.79 C294.10,204.35 294.82,204.00 295.97,204.00 C299.77,204.00 305.27,201.15 304.64,199.51 C304.32,198.68 304.57,198.00 305.18,198.00 C305.80,198.00 305.27,197.10 304.00,196.00 C302.73,194.90 302.10,194.03 302.60,194.07 C303.48,194.14 305.77,195.51 311.27,199.29 C313.74,201.20 316.41,203.00 317.01,203.00 C317.07,203.00 317.13,202.97 317.20,202.90 C317.31,202.93 317.39,202.93 317.42,202.90 C317.49,202.83 317.60,202.25 317.75,201.29 C318.08,199.76 318.42,197.10 318.82,192.98 C318.93,192.02 319.04,191.02 319.15,190.00 L 320.50 177.50 L 323.96 177.17 C325.86,176.99 328.56,176.09 329.96,175.17 C331.36,174.25 333.23,173.05 334.10,172.50 C344.50,165.99 345.21,165.16 347.63,156.67 C348.44,153.83 349.37,150.82 349.69,150.00 C350.01,149.18 350.17,146.81 350.06,144.75 C349.93,142.46 350.30,141.00 351.00,141.00 C351.78,141.00 351.93,142.03 351.47,144.12 C351.06,146.02 351.21,147.51 351.87,147.92 C352.21,148.13 352.55,149.12 352.86,150.74 C353.95,161.81 354.88,173.91 355.50,185.32 C356.11,200.99 356.41,219.01 356.25,234.03 C356.05,245.34 355.53,254.65 354.59,262.92 L 354.59 262.92 C354.46,264.00 354.32,265.07 354.17,266.14 C353.53,269.31 353.02,269.66 352.19,268.30 C351.75,267.60 349.45,267.30 346.18,267.53 C342.08,267.81 339.79,268.68 336.02,271.39 C333.34,273.32 328.75,276.10 325.82,277.58 C322.89,279.06 317.39,282.68 313.58,285.63 C309.77,288.59 306.28,291.00 305.83,291.00 C305.37,291.00 305.00,273.64 305.00,252.43 ZM 304.27 145.99 C296.48,149.71 288.74,153.47 287.50,154.21 C286.95,154.53 285.45,155.43 283.48,156.62 C281.61,157.70 279.59,158.91 277.18,160.37 C273.30,162.73 268.68,165.41 265.49,167.17 L 265.49 167.17 C264.40,167.77 263.45,168.27 262.73,168.64 C262.32,168.85 261.93,169.05 261.58,169.24 L 261.57 169.24 C259.52,170.34 258.00,171.28 258.00,171.48 C258.00,171.73 259.14,172.53 260.53,173.26 C262.87,174.49 262.54,174.59 256.28,174.66 C250.40,174.73 247.70,175.49 236.00,180.36 C228.57,183.46 219.96,187.33 216.86,188.97 C210.21,192.49 197.65,197.66 182.87,202.97 C177.03,205.07 171.17,207.50 169.86,208.36 C168.54,209.22 165.67,210.59 163.48,211.41 C152.82,215.40 142.80,219.98 136.00,223.99 C131.88,226.42 126.55,229.45 124.16,230.72 C116.03,235.06 110.26,239.30 108.57,242.15 C106.70,245.31 105.29,245.66 102.53,243.64 C102.13,243.35 101.82,243.06 101.58,242.59 C101.43,232.52 101.59,221.51 102.11,211.29 C102.23,209.52 102.36,207.77 102.49,206.04 C102.19,210.33 102.00,214.30 102.00,217.34 C102.00,225.94 102.61,227.38 105.00,224.50 C105.68,223.68 106.72,223.00 107.31,223.00 C107.89,223.00 109.45,221.99 110.76,220.75 C115.85,215.98 150.35,198.61 160.14,195.89 C164.01,194.82 169.27,192.81 171.84,191.42 C179.65,187.20 184.40,184.17 185.48,182.74 C186.04,182.00 188.52,180.59 191.00,179.61 C197.42,177.09 221.55,164.25 222.87,162.66 C223.47,161.93 230.09,158.22 237.56,154.41 C245.04,150.61 251.93,146.78 252.87,145.90 C253.82,145.02 255.04,144.12 255.58,143.90 C257.23,143.23 268.65,135.78 275.75,130.75 C279.43,128.14 283.14,126.00 284.00,126.00 C284.86,126.00 286.55,125.30 287.76,124.45 C289.24,123.42 291.06,123.11 293.27,123.52 C295.84,124.00 296.97,123.69 298.44,122.07 C299.47,120.93 299.96,120.00 299.53,120.00 C299.10,120.00 299.32,119.32 300.00,118.50 C300.68,117.68 301.97,117.00 302.85,117.00 C303.73,117.00 305.83,115.44 307.53,113.54 C309.22,111.64 311.71,109.64 313.05,109.10 L 315.50 108.13 L 312.90 108.06 C311.76,108.04 306.83,109.18 301.01,110.77 C303.39,110.09 305.72,109.43 308.00,108.78 C329.36,102.69 335.83,102.22 341.77,106.34 C343.13,107.28 344.52,108.51 345.51,109.59 C346.45,110.80 347.11,112.27 347.69,114.49 C348.60,118.58 349.76,125.82 350.89,134.19 C351.00,135.90 350.70,136.00 350.09,136.00 C349.59,136.00 348.86,134.14 348.48,131.87 C347.99,128.96 347.52,128.15 346.91,129.12 C346.25,130.15 346.03,129.92 346.02,128.25 C346.00,125.49 342.42,125.10 341.57,127.77 C341.17,129.05 339.87,129.59 336.96,129.71 C334.32,129.81 331.31,130.93 328.29,132.93 C323.10,136.37 322.71,136.46 320.14,134.85 C319.08,134.20 317.13,134.00 315.54,134.40 C313.26,134.97 312.87,135.52 313.26,137.58 C313.52,138.95 313.53,139.86 313.27,139.60 C313.01,139.34 311.58,140.38 310.10,141.90 C309.02,143.00 306.70,144.61 304.27,145.99 ZM 223.00 394.06 C221.05,393.57 218.91,393.01 216.72,392.42 C209.70,390.54 202.27,388.20 200.22,387.24 L 196.50 385.48 L 196.24 338.74 C196.21,333.71 196.18,328.87 196.14,324.32 L 202.99 324.50 C207.48,324.62 210.03,324.30 210.07,323.59 C210.11,322.99 210.53,323.40 211.00,324.50 C211.47,325.60 211.89,337.84 211.93,351.70 C212.01,380.94 212.24,382.01 218.41,381.99 C226.94,381.95 244.62,373.98 247.19,369.00 C248.10,367.24 248.49,356.58 248.74,324.39 C249.04,317.34 249.11,303.66 248.99,291.00 L 249.00 285.19 L 249.13 263.87 L 252.11 264.52 C254.08,264.96 255.90,264.64 257.51,263.59 C261.24,261.14 262.82,261.60 263.28,265.25 L 263.68 268.50 L 263.84 265.25 C263.93,263.46 264.44,262.00 264.98,262.00 C265.42,262.00 265.77,272.35 266.00,291.60 L 266.01 315.27 L 266.05 383.29 C262.12,385.13 258.10,386.90 254.24,388.50 C254.24,388.50 254.23,388.50 254.22,388.51 C252.20,389.31 250.14,390.10 248.11,390.84 C241.60,393.15 235.17,395.20 233.22,395.47 L 233.22 395.47 L 233.19 395.47 L 233.17 395.47 L 233.17 395.47 C231.43,395.69 227.92,395.19 223.00,394.06 ZM 127.74 298.76 L 127.74 298.76 C130.29,298.19 132.39,297.70 133.25,297.48 C136.28,296.71 137.19,298.48 134.25,299.43 C133.29,299.74 131.60,301.34 130.50,302.99 C129.40,304.64 127.96,306.00 127.29,306.00 C126.62,306.00 125.23,306.91 124.19,308.03 C123.15,309.14 120.85,310.47 119.07,310.98 C115.92,311.88 115.80,311.80 113.84,307.37 C113.74,307.14 113.64,306.92 113.55,306.70 C113.28,306.05 113.04,305.44 112.83,304.90 C112.65,304.43 112.51,304.01 112.40,303.66 C112.28,302.92 112.49,302.47 113.41,302.08 C114.48,301.78 116.18,301.37 118.18,300.90 C118.43,300.85 118.67,300.80 118.92,300.75 C121.80,300.16 124.74,299.49 127.74,298.76 ZM 294.94 112.51 C286.68,114.94 270.20,119.71 257.00,123.51 C251.99,124.95 247.04,126.38 242.64,127.67 C256.19,123.69 276.32,117.86 294.94,112.51 ZM 103.94 190.58 C104.38,186.74 104.83,183.42 105.27,180.90 C105.32,180.65 105.37,180.42 105.42,180.19 C104.93,182.86 104.42,186.52 103.94,190.58 Z" fill="rgb(235,206,119)"/>
<path d="M 102.00 217.34 C102.00,205.47 104.84,179.21 106.47,176.07 C108.87,171.41 111.75,169.82 127.71,164.33 C153.15,155.59 196.48,141.46 210.00,137.50 C216.88,135.48 224.52,133.16 227.00,132.34 C229.48,131.51 242.98,127.54 257.00,123.51 C271.02,119.47 288.76,114.33 296.40,112.09 C304.05,109.84 311.47,108.03 312.90,108.06 L 315.50 108.13 L 313.05 109.10 C311.71,109.64 309.22,111.64 307.53,113.54 C305.83,115.44 303.73,117.00 302.85,117.00 C301.97,117.00 300.68,117.68 300.00,118.50 C299.32,119.32 299.10,120.00 299.53,120.00 C299.96,120.00 299.47,120.93 298.44,122.07 C296.97,123.69 295.84,124.00 293.27,123.52 C291.06,123.11 289.24,123.42 287.76,124.45 C286.55,125.30 284.86,126.00 284.00,126.00 C283.14,126.00 279.43,128.14 275.75,130.75 C268.65,135.78 257.23,143.23 255.58,143.90 C255.04,144.12 253.82,145.02 252.87,145.90 C251.93,146.78 245.04,150.61 237.56,154.41 C230.09,158.22 223.47,161.93 222.87,162.66 C221.55,164.25 197.42,177.09 191.00,179.61 C188.52,180.59 186.04,182.00 185.48,182.74 C184.40,184.17 179.65,187.20 171.84,191.42 C169.27,192.81 164.01,194.82 160.14,195.89 C150.35,198.61 115.85,215.98 110.76,220.75 C109.45,221.99 107.89,223.00 107.31,223.00 C106.72,223.00 105.68,223.68 105.00,224.50 C102.61,227.38 102.00,225.94 102.00,217.34 Z" fill="rgb(241,223,165)"/>
</g>
</svg>